<?xml version="1.0" standalone="no"?>
<!DOCTYPE svg PUBLIC "-//W3C//DTD SVG 20010904//EN"
 "http://www.w3.org/TR/2001/REC-SVG-20010904/DTD/svg10.dtd">
<svg version="1.0" xmlns="http://www.w3.org/2000/svg"
 width="206.000000pt" height="206.000000pt" viewBox="0 0 206.000000 206.000000"
 preserveAspectRatio="xMidYMid meet">
<metadata>
Created by potrace 1.11, written by Peter Selinger 2001-2013
</metadata>
<g transform="translate(0.000000,206.000000) scale(0.100000,-0.100000)"
fill="#000000" stroke="none">
<path d="M236 2004 c-14 -14 -16 -93 -16 -727 0 -674 1 -714 19 -753 10 -23
34 -53 52 -66 75 -56 700 -406 736 -412 23 -4 56 -1 83 7 25 8 195 102 379
208 251 146 342 204 365 232 l31 39 3 733 c2 714 2 734 -17 744 -14 8 -105
-13 -397 -91 -209 -55 -397 -101 -419 -101 -22 1 -210 46 -419 102 -208 55
-380 101 -382 101 -1 0 -10 -7 -18 -16z m292 -674 c150 -86 147 -84 216 -204
l29 -49 -34 20 c-19 11 -89 52 -156 91 -119 70 -122 73 -167 147 -46 76 -53
90 -38 82 4 -2 71 -42 150 -87z m1197 82 c-6 -5 -91 -55 -190 -111 -99 -57
-201 -119 -227 -138 -48 -35 -101 -108 -179 -245 -24 -43 -46 -78 -49 -78 -3
0 -17 22 -31 48 l-25 49 61 106 c34 59 68 113 75 122 7 8 11 17 9 19 -2 2 -37
11 -77 21 -77 18 -86 24 -76 50 5 11 15 15 31 12 18 -3 25 1 29 19 5 19 11 23
31 18 19 -5 25 -2 30 15 6 25 1 25 88 6 81 -17 114 -12 350 54 153 43 164 45
150 33z m-920 -242 c39 -23 78 -52 87 -63 10 -12 55 -88 100 -169 46 -81 85
-148 88 -148 3 1 41 64 85 141 84 149 144 217 236 268 l43 24 -60 -69 c-78
-89 -83 -96 -209 -314 -58 -102 -110 -189 -114 -193 -5 -5 -73 103 -151 240
-79 136 -154 265 -167 285 -24 39 -29 52 -15 45 4 -3 39 -24 77 -47z m-120
-68 c109 -63 111 -65 156 -143 26 -43 45 -79 42 -79 -16 0 -204 115 -224 137
-28 31 -104 157 -91 151 4 -1 57 -31 117 -66z m184 -246 c35 -19 55 -43 92
-105 27 -45 45 -81 41 -81 -4 0 -38 20 -77 43 -60 37 -75 52 -117 120 -26 43
-48 81 -48 84 0 2 15 -4 33 -15 17 -11 52 -32 76 -46z"/>
</g>
</svg>
